<?xml version="1.0" encoding="UTF-8" standalone="no"?><!DOCTYPE svg PUBLIC "-//W3C//DTD SVG 1.1//EN" "http://www.w3.org/Graphics/SVG/1.1/DTD/svg11.dtd"><svg width="100%" height="100%" viewBox="0 0 1244 262" version="1.1" xmlns="http://www.w3.org/2000/svg" xmlns:xlink="http://www.w3.org/1999/xlink" xml:space="preserve" xmlns:serif="http://www.serif.com/" style="fill-rule:evenodd;clip-rule:evenodd;stroke-linejoin:round;stroke-miterlimit:1.41421;"><path d="M512.418,176.361l0,-34.033l-17.392,34.033l-12.142,0l-17.391,-34.033l0,34.033l-12.655,0l0,-48.458l17.188,0l18.929,36.679l18.929,-36.679l17.121,0l0,48.458l-12.587,0Z" style="fill:#fff;fill-rule:nonzero;"/><path d="M591.006,152.166c0,-1.812 -0.279,-3.616 -0.837,-5.412c-0.559,-1.8 -1.546,-3.417 -2.967,-4.85c-1.421,-1.438 -3.358,-2.6 -5.817,-3.492c-2.45,-0.896 -5.579,-1.342 -9.379,-1.342c-2.546,0 -4.783,0.205 -6.716,0.617c-1.934,0.413 -3.6,0.983 -5.013,1.713c-1.408,0.729 -2.592,1.579 -3.55,2.554c-0.95,0.979 -1.712,2.025 -2.279,3.141c-0.571,1.117 -0.975,2.28 -1.213,3.492c-0.237,1.213 -0.358,2.404 -0.358,3.579c0,1.2 0.121,2.413 0.358,3.634c0.238,1.22 0.642,2.391 1.213,3.508c0.567,1.117 1.329,2.158 2.279,3.121c0.958,0.962 2.142,1.804 3.55,2.521c1.413,0.72 3.079,1.283 5.013,1.695c1.933,0.409 4.17,0.617 6.716,0.617c3.8,0 6.929,-0.446 9.379,-1.342c2.459,-0.891 4.396,-2.058 5.817,-3.491c1.421,-1.434 2.408,-3.05 2.967,-4.85c0.558,-1.796 0.837,-3.6 0.837,-5.413m12.788,0c0,4.163 -0.738,7.834 -2.217,11.021c-1.475,3.188 -3.592,5.85 -6.342,7.988c-2.754,2.141 -6.087,3.758 -10.012,4.85c-3.921,1.095 -8.325,1.641 -13.217,1.641c-4.883,0 -9.3,-0.546 -13.246,-1.641c-3.945,-1.092 -7.304,-2.709 -10.079,-4.85c-2.771,-2.138 -4.908,-4.8 -6.408,-7.988c-1.504,-3.187 -2.25,-6.858 -2.25,-11.021c0,-4.162 0.746,-7.833 2.25,-11.025c1.5,-3.183 3.637,-5.846 6.408,-7.983c2.775,-2.142 6.134,-3.758 10.079,-4.854c3.946,-1.092 8.363,-1.638 13.246,-1.638c4.892,0 9.296,0.546 13.217,1.638c3.925,1.096 7.258,2.712 10.012,4.854c2.75,2.137 4.867,4.8 6.342,7.983c1.479,3.192 2.217,6.863 2.217,11.025" style="fill:#fff;fill-rule:nonzero;"/><path d="M663.455,152.095c0,-2.329 -0.287,-4.35 -0.867,-6.066c-0.583,-1.717 -1.512,-3.134 -2.8,-4.25c-1.279,-1.117 -2.962,-1.95 -5.029,-2.504c-2.067,-0.55 -4.591,-0.83 -7.571,-0.83l-15.72,0l0,27.371l15.72,0c2.98,0 5.505,-0.275 7.571,-0.829c2.067,-0.554 3.75,-1.4 5.029,-2.542c1.288,-1.137 2.217,-2.566 2.8,-4.283c0.58,-1.717 0.867,-3.737 0.867,-6.067m12.758,0c0,3.105 -0.333,5.863 -0.991,8.271c-0.659,2.409 -1.588,4.509 -2.779,6.296c-1.196,1.788 -2.63,3.304 -4.296,4.55c-1.671,1.246 -3.534,2.246 -5.579,3c-2.042,0.75 -4.25,1.296 -6.617,1.638c-2.363,0.341 -4.829,0.512 -7.396,0.512l-29.742,0l0,-48.462l29.671,0c2.567,0 5.033,0.17 7.404,0.512c2.363,0.342 4.571,0.888 6.629,1.638c2.059,0.754 3.93,1.745 5.613,2.983c1.679,1.233 3.117,2.75 4.312,4.55c1.192,1.8 2.121,3.896 2.78,6.296c0.658,2.4 0.991,5.137 0.991,8.216" style="fill:#fff;fill-rule:nonzero;"/><path d="M691.23,176.361l0,-48.458l47.438,0l0,10.333l-34.446,0l0,8.004l32.671,0l0,10.333l-32.671,0l0,9.455l34.921,0l0,10.333l-47.913,0Z" style="fill:#fff;fill-rule:nonzero;"/><path d="M792.495,143.206c0,-0.941 -0.116,-1.737 -0.358,-2.396c-0.242,-0.658 -0.654,-1.195 -1.246,-1.604c-0.587,-0.412 -1.379,-0.712 -2.366,-0.9c-0.988,-0.191 -2.221,-0.283 -3.705,-0.283l-17.32,0l0,10.371l17.32,0c1.484,0 2.717,-0.096 3.705,-0.284c0.987,-0.187 1.779,-0.487 2.366,-0.9c0.592,-0.412 1.004,-0.945 1.246,-1.604c0.242,-0.658 0.358,-1.458 0.358,-2.4m-24.995,33.154l-12.655,0l0,-48.458l31.717,0c3.413,0 6.304,0.363 8.679,1.092c2.375,0.729 4.309,1.762 5.8,3.104c1.488,1.337 2.567,2.954 3.238,4.85c0.671,1.892 1.004,4 1.004,6.329c0,2.046 -0.275,3.833 -0.833,5.363c-0.559,1.529 -1.309,2.837 -2.25,3.933c-0.942,1.092 -2.042,2.012 -3.292,2.767c-1.254,0.754 -2.571,1.375 -3.954,1.87l15.341,19.15l-14.795,0l-14.192,-17.845l-13.808,0l0,17.845Z" style="fill:#fff;fill-rule:nonzero;"/><path d="M867.129,176.361l-31.616,-33.296l0,33.296l-12.65,0l0,-48.458l13.741,0l31.65,33.433l0,-33.433l12.584,0l0,48.458l-13.709,0Z" style="fill:#fff;fill-rule:nonzero;"/><path d="M928.746,176.361l0,-48.458l47.438,0l0,10.333l-34.446,0l0,8.004l32.671,0l0,10.333l-32.671,0l0,9.455l34.921,0l0,10.333l-47.913,0Z" style="fill:#fff;fill-rule:nonzero;"/><path d="M1008.43,157.739l17.116,0l-8.52,-17.846l-8.596,17.846Zm21.587,9.454l-26.125,0l-4.4,9.167l-14.116,0l24.52,-48.459l14.117,0l24.521,48.459l-14.121,0l-4.396,-9.167Z" style="fill:#fff;fill-rule:nonzero;"/><path d="M1097.35,143.206c0,-0.941 -0.121,-1.737 -0.358,-2.396c-0.242,-0.658 -0.655,-1.195 -1.246,-1.604c-0.592,-0.412 -1.384,-0.712 -2.371,-0.9c-0.988,-0.191 -2.221,-0.283 -3.7,-0.283l-17.325,0l0,10.371l17.325,0c1.479,0 2.712,-0.096 3.7,-0.284c0.987,-0.187 1.779,-0.487 2.371,-0.9c0.591,-0.412 1.004,-0.945 1.246,-1.604c0.237,-0.658 0.358,-1.458 0.358,-2.4m-25,33.154l-12.65,0l0,-48.458l31.712,0c3.413,0 6.305,0.363 8.68,1.092c2.375,0.729 4.308,1.762 5.8,3.104c1.487,1.337 2.57,2.954 3.237,4.85c0.671,1.892 1.008,4 1.008,6.329c0,2.046 -0.279,3.833 -0.837,5.363c-0.558,1.529 -1.304,2.837 -2.25,3.933c-0.942,1.092 -2.038,2.012 -3.292,2.767c-1.25,0.754 -2.566,1.375 -3.954,1.87l15.346,19.15l-14.8,0l-14.188,-17.845l-13.812,0l0,17.845Z" style="fill:#fff;fill-rule:nonzero;"/><path d="M1153.97,138.446l0,37.917l-12.65,0l0,-37.917l-19.883,0l0,-10.546l52.45,0l0,10.546l-19.917,0Z" style="fill:#fff;fill-rule:nonzero;"/><path d="M1230.58,176.361l0,-20.208l-32.196,0l0,20.208l-12.654,0l0,-48.458l12.654,0l0,17.633l32.196,0l0,-17.633l12.65,0l0,48.458l-12.65,0Z" style="fill:#fff;fill-rule:nonzero;"/><path d="M470.098,243.068c-8.446,0 -14.721,-6.521 -14.721,-14.763l0,-0.083c0,-8.158 6.15,-14.842 14.966,-14.842c5.413,0 8.655,1.805 11.317,4.43l-4.017,4.629c-2.212,-2.009 -4.47,-3.238 -7.341,-3.238c-4.838,0 -8.325,4.017 -8.325,8.938l0,0.083c0,4.921 3.404,9.025 8.325,9.025c3.283,0 5.291,-1.312 7.546,-3.367l4.02,4.063c-2.954,3.154 -6.233,5.125 -11.77,5.125" style="fill:#fff;fill-rule:nonzero;"/><path d="M521.005,228.223c0,-4.921 -3.608,-9.021 -8.692,-9.021c-5.087,0 -8.612,4.016 -8.612,8.937l0,0.084c0,4.92 3.608,9.025 8.696,9.025c5.083,0 8.608,-4.021 8.608,-8.942l0,-0.083Zm-8.692,14.845c-8.858,0 -15.216,-6.6 -15.216,-14.762l0,-0.083c0,-8.159 6.441,-14.846 15.3,-14.846c8.854,0 15.212,6.604 15.212,14.762l0,0.084c0,8.158 -6.437,14.845 -15.296,14.845" style="fill:#fff;fill-rule:nonzero;"/><path d="M565.638,242.576l-13.9,-18.25l0,18.25l-6.238,0l0,-28.704l5.825,0l13.45,17.675l0,-17.675l6.234,0l0,28.704l-5.371,0Z" style="fill:#fff;fill-rule:nonzero;"/><path d="M600.385,242.987c-4.345,0 -8.733,-1.517 -12.179,-4.596l3.734,-4.467c2.583,2.129 5.287,3.484 8.57,3.484c2.58,0 4.138,-1.025 4.138,-2.705l0,-0.083c0,-1.6 -0.979,-2.421 -5.779,-3.65c-5.784,-1.475 -9.513,-3.075 -9.513,-8.775l0,-0.083c0,-5.209 4.179,-8.65 10.046,-8.65c4.183,0 7.75,1.312 10.663,3.65l-3.284,4.754c-2.541,-1.763 -5.041,-2.829 -7.462,-2.829c-2.417,0 -3.692,1.108 -3.692,2.504l0,0.079c0,1.888 1.233,2.504 6.192,3.775c5.825,1.517 9.104,3.608 9.104,8.608l0,0.084c0,5.7 -4.346,8.9 -10.538,8.9" style="fill:#fff;fill-rule:nonzero;"/><path d="M641.092,219.694l0,22.883l-6.317,0l0,-22.883l-8.733,0l0,-5.821l23.783,0l0,5.821l-8.733,0Z" style="fill:#fff;fill-rule:nonzero;"/><path d="M684.496,223.671c0,-2.704 -1.888,-4.1 -4.963,-4.1l-6.275,0l0,8.242l6.4,0c3.075,0 4.838,-1.638 4.838,-4.058l0,-0.084Zm-0.121,18.904l-6.154,-9.183l-4.963,0l0,9.183l-6.312,0l0,-28.704l13.121,0c6.766,0 10.825,3.567 10.825,9.471l0,0.083c0,4.634 -2.5,7.546 -6.15,8.9l7.012,10.25l-7.379,0Z" style="fill:#fff;fill-rule:nonzero;"/><path d="M720.848,243.028c-7.712,0 -12.425,-4.309 -12.425,-12.755l0,-16.404l6.313,0l0,16.238c0,4.675 2.337,7.1 6.196,7.1c3.854,0 6.191,-2.338 6.191,-6.892l0,-16.446l6.313,0l0,16.2c0,8.692 -4.879,12.959 -12.588,12.959" style="fill:#fff;fill-rule:nonzero;"/><path d="M765.601,243.068c-8.446,0 -14.721,-6.521 -14.721,-14.763l0,-0.083c0,-8.158 6.15,-14.842 14.967,-14.842c5.413,0 8.654,1.805 11.317,4.43l-4.017,4.629c-2.212,-2.009 -4.471,-3.238 -7.342,-3.238c-4.837,0 -8.325,4.017 -8.325,8.938l0,0.083c0,4.921 3.405,9.025 8.325,9.025c3.284,0 5.292,-1.312 7.546,-3.367l4.021,4.063c-2.954,3.154 -6.233,5.125 -11.771,5.125" style="fill:#fff;fill-rule:nonzero;"/><path d="M807.695,219.694l0,22.883l-6.316,0l0,-22.883l-8.734,0l0,-5.821l23.784,0l0,5.821l-8.734,0Z" style="fill:#fff;fill-rule:nonzero;"/><rect x="833.833" y="213.871" width="6.317" height="28.704" style="fill:#fff;"/><path d="M882.252,228.223c0,-4.921 -3.609,-9.021 -8.692,-9.021c-5.087,0 -8.612,4.016 -8.612,8.937l0,0.084c0,4.92 3.608,9.025 8.695,9.025c5.084,0 8.609,-4.021 8.609,-8.942l0,-0.083Zm-8.692,14.845c-8.858,0 -15.217,-6.6 -15.217,-14.762l0,-0.083c0,-8.159 6.442,-14.846 15.3,-14.846c8.855,0 15.213,6.604 15.213,14.762l0,0.084c0,8.158 -6.438,14.845 -15.296,14.845" style="fill:#fff;fill-rule:nonzero;"/><path d="M926.883,242.576l-13.9,-18.25l0,18.25l-6.238,0l0,-28.704l5.825,0l13.45,17.675l0,-17.675l6.234,0l0,28.704l-5.371,0Z" style="fill:#fff;fill-rule:nonzero;"/><rect x="230.113" y="64.858" width="120.846" height="28.7" style="fill:#fff;"/><rect x="230.113" y="120.75" width="120.846" height="28.7" style="fill:#fff;"/><rect x="230.113" y="176.642" width="120.846" height="28.7" style="fill:#fff;"/><rect x="171.313" y="62.596" width="28.7" height="145.017" style="fill:#fff;"/><rect x="115.421" y="62.596" width="28.7" height="145.017" style="fill:#fff;"/><rect x="59.529" y="62.596" width="28.7" height="145.017" style="fill:#fff;"/><path d="M378.242,236.163l-352.729,0l0,-210.65l352.729,0l0,210.65Zm-378.242,25.512l403.754,0l0,-261.675l-403.754,0l0,261.675Z" style="fill:#fff;fill-rule:nonzero;"/></svg>