<?xml version="1.0" encoding="utf-8"?>
<!-- Generator: Adobe Illustrator 21.0.0, SVG Export Plug-In . SVG Version: 6.00 Build 0)  -->
<svg version="1.1" xmlns="http://www.w3.org/2000/svg" xmlns:xlink="http://www.w3.org/1999/xlink" x="0px" y="0px" width="288px"
	 height="236.01px" viewBox="0 0 288 236.01" enable-background="new 0 0 288 236.01" xml:space="preserve">
<g id="Background">
</g>
<g id="Guides">
</g>
<g id="Foreground">
	<g>
		<g>
			<path fill="#54401F" d="M34.18,204.83c0.9,2.91,1.46,4.15,2.58,4.15c1.35,0,1.91-1.34,4.03-5.94
				c4.82-10.31,19.73-49.98,21.86-55.7h0.22l23.31,56.15c1.68,4.15,2.35,5.49,3.47,5.49c1.46,0,2.02-1.34,3.25-5.27
				c5.49-16.81,17.26-52.45,22.41-66.57c2.35-6.39,3.59-10.87,6.28-11.88c1.23-0.45,2.8-0.56,3.92-0.56c1.01,0,1.57-0.34,1.57-1.12
				c0-0.67-0.78-0.9-2.02-0.9c-3.7,0-8.52,0.34-9.3,0.34c-1.01,0-5.71-0.34-11.66-0.34c-1.68,0-2.58,0.22-2.58,1.01
				c0,0.67,0.79,1.01,1.91,1.01c4.37,0,5.38,1.57,5.38,3.36c0,1.57-0.34,3.92-1.12,6.5c-3.92,13.11-12.89,42.7-14.91,50.21h-0.33
				L69.15,128.4c-1.46-3.59-2.02-5.27-3.25-5.27c-0.9,0-1.57,0.9-2.8,4.03l-21.74,58.39h-0.34c-2.02-6.28-12.44-40.23-14.35-47.63
				c-1.35-5.04-2.47-8.85-2.47-10.31c0-1.23,0.22-2.02,1.23-2.47c0.79-0.45,1.91-0.45,2.8-0.45c1.12,0,2.02-0.11,2.02-1.01
				c0-0.67-0.78-1.01-2.35-1.01c-6.5,0-11.43,0.34-12.44,0.34c-1.01,0-7.17-0.34-13-0.34c-1.57,0-2.47,0.22-2.47,1.01
				c0,0.9,0.67,1.01,1.79,1.01c1.01,0,3.25,0.22,4.48,1.01c1.57,1.12,2.8,3.81,4.15,7.96L34.18,204.83z"/>
			<path fill="#54401F" d="M121.68,184.95c0,7.48,0,13.57-0.39,16.8c-0.23,2.24-0.69,3.55-2.23,3.85c-0.69,0.15-1.62,0.31-2.78,0.31
				c-0.92,0-1.23,0.23-1.23,0.62c0,0.54,0.54,0.77,1.54,0.77c3.08,0,7.94-0.23,9.71-0.23c2.08,0,6.94,0.23,12.03,0.23
				c0.85,0,1.46-0.23,1.46-0.77c0-0.38-0.39-0.62-1.23-0.62c-1.16,0-2.85-0.15-3.93-0.31c-2.31-0.31-2.85-1.7-3.08-3.78
				c-0.31-3.31-0.31-9.41-0.31-16.88v-13.57c0-11.72,0-13.88,0.15-16.34c0.16-2.7,0.77-4.01,2.85-4.39
				c0.93-0.15,1.54-0.23,2.31-0.23c0.77,0,1.23-0.15,1.23-0.77c0-0.46-0.62-0.62-1.62-0.62c-2.93,0-7.48,0.23-9.4,0.23
				c-2.23,0-7.09-0.23-10.02-0.23c-1.23,0-1.85,0.15-1.85,0.62c0,0.62,0.46,0.77,1.23,0.77c0.93,0,1.93,0.08,2.78,0.31
				c1.69,0.39,2.47,1.7,2.62,4.32c0.15,2.47,0.15,4.62,0.15,16.34V184.95z"/>
			<path fill="#54401F" d="M161.36,184.95c0,7.09,0,13.18-0.39,16.42c-0.23,2.24-0.69,3.93-2.24,4.24
				c-0.69,0.15-1.62,0.31-2.78,0.31c-0.93,0-1.23,0.23-1.23,0.62c0,0.54,0.54,0.77,1.54,0.77c3.08,0,7.94-0.23,9.71-0.23
				c2.16,0,7.02,0.23,12.1,0.23c0.85,0,1.46-0.23,1.46-0.77c0-0.38-0.39-0.62-1.23-0.62c-1.16,0-2.85-0.15-3.93-0.31
				c-2.31-0.31-2.78-2-3.01-4.16c-0.39-3.31-0.39-9.41-0.39-16.5v-31.6l9.71,0.23c6.86,0.15,8.94,2.31,9.1,4.32l0.08,0.85
				c0.08,1.16,0.23,1.54,0.85,1.54c0.46,0,0.62-0.46,0.69-1.23c0-2,0.23-7.32,0.23-8.94c0-1.16-0.08-1.62-0.62-1.62
				c-0.62,0-2.47,0.77-7.4,0.77h-30.52c-2.55,0-5.47-0.15-7.71-0.39c-1.93-0.15-2.7-0.92-3.31-0.92c-0.46,0-0.69,0.46-0.92,1.46
				c-0.15,0.62-1.62,7.63-1.62,8.87c0,0.85,0.15,1.23,0.69,1.23c0.46,0,0.69-0.31,0.85-0.92c0.15-0.62,0.54-1.54,1.31-2.7
				c1.16-1.7,3.01-2.08,7.48-2.23l11.49-0.31V184.95z"/>
			<path fill="#54401F" d="M216.86,184.95c0,7.09,0,13.18-0.38,16.42c-0.23,2.24-0.7,3.93-2.24,4.24c-0.69,0.15-1.62,0.31-2.77,0.31
				c-0.93,0-1.23,0.23-1.23,0.62c0,0.54,0.54,0.77,1.54,0.77c3.08,0,7.94-0.23,9.71-0.23c2.16,0,7.02,0.23,12.1,0.23
				c0.85,0,1.46-0.23,1.46-0.77c0-0.38-0.38-0.62-1.23-0.62c-1.16,0-2.85-0.15-3.93-0.31c-2.31-0.31-2.78-2-3.01-4.16
				c-0.39-3.31-0.39-9.41-0.39-16.5v-31.6l9.71,0.23c6.86,0.15,8.94,2.31,9.1,4.32l0.08,0.85c0.08,1.16,0.23,1.54,0.85,1.54
				c0.46,0,0.62-0.46,0.69-1.23c0-2,0.23-7.32,0.23-8.94c0-1.16-0.08-1.62-0.62-1.62c-0.62,0-2.47,0.77-7.4,0.77h-30.53
				c-2.54,0-5.47-0.15-7.71-0.39c-1.93-0.15-2.7-0.92-3.31-0.92c-0.46,0-0.69,0.46-0.92,1.46c-0.15,0.62-1.62,7.63-1.62,8.87
				c0,0.85,0.15,1.23,0.69,1.23c0.46,0,0.69-0.31,0.85-0.92c0.15-0.62,0.54-1.54,1.31-2.7c1.16-1.7,3.01-2.08,7.48-2.23l11.49-0.31
				V184.95z"/>
			<path fill="#54401F" d="M256.7,184.95c0,7.09,0,13.18-0.39,16.42c-0.31,2.24-0.69,3.93-2.23,4.24c-0.69,0.15-1.62,0.31-2.78,0.31
				c-0.92,0-1.23,0.23-1.23,0.62c0,0.54,0.54,0.77,1.54,0.77c3.08,0,7.94-0.23,9.71-0.23c4.55,0,9.71,0.46,21.35,0.46
				c2.93,0,3.62,0,4.16-2c0.39-1.54,1-6.78,1-8.55c0-0.77,0-1.39-0.62-1.39c-0.54,0-0.69,0.31-0.85,1.16
				c-0.54,3.16-1.46,4.78-3.47,5.7c-2,0.92-5.24,0.92-7.25,0.92c-7.86,0-9.1-1.16-9.25-6.48c-0.08-2.24,0-9.33,0-11.95v-6.09
				c0-0.46,0.08-0.77,0.46-0.77c1.85,0,9.48,0.08,10.95,0.23c2.85,0.31,3.93,1.46,4.32,3.01c0.23,1,0.23,2,0.31,2.77
				c0,0.39,0.15,0.69,0.69,0.69c0.7,0,0.7-0.85,0.7-1.46c0-0.54,0.15-3.62,0.31-5.16c0.23-3.93,0.62-5.16,0.62-5.63
				c0-0.46-0.23-0.62-0.54-0.62c-0.38,0-0.69,0.38-1.23,1c-0.69,0.77-1.85,1-3.7,1.16c-1.77,0.15-10.64,0.15-12.33,0.15
				c-0.46,0-0.54-0.31-0.54-0.85v-19.5c0-0.54,0.15-0.77,0.54-0.77c1.54,0,9.64,0.15,10.94,0.31c3.86,0.46,4.63,1.39,5.17,2.77
				c0.39,0.93,0.46,2.24,0.46,2.78c0,0.69,0.16,1.08,0.69,1.08c0.54,0,0.69-0.46,0.77-0.85c0.15-0.92,0.31-4.32,0.38-5.09
				c0.23-3.55,0.62-4.47,0.62-5.01c0-0.39-0.08-0.69-0.46-0.69s-0.85,0.23-1.23,0.31c-0.62,0.15-1.85,0.31-3.31,0.46
				c-1.46,0.08-16.81,0.08-19.27,0.08c-2.16,0-7.01-0.23-11.1-0.23c-1.16,0-1.7,0.15-1.7,0.69c0,0.54,0.46,0.69,1.31,0.69
				c1.08,0,2.39,0.08,3.01,0.23c2.54,0.54,3.16,1.77,3.31,4.39c0.15,2.47,0.15,4.62,0.15,16.34V184.95z"/>
			<path fill="#5E81AA" d="M61.53,105.92c0,3.1,0,5.75-0.17,7.17c-0.1,0.98-0.3,1.72-0.98,1.85c-0.3,0.07-0.71,0.13-1.21,0.13
				c-0.4,0-0.54,0.1-0.54,0.27c0,0.23,0.24,0.34,0.67,0.34c1.35,0,3.47-0.1,4.24-0.1c0.94,0,3.06,0.1,5.28,0.1
				c0.37,0,0.64-0.1,0.64-0.34c0-0.17-0.17-0.27-0.54-0.27c-0.5,0-1.24-0.07-1.72-0.13c-1.01-0.13-1.21-0.88-1.31-1.82
				c-0.17-1.45-0.17-4.1-0.17-7.2V92.13l4.24,0.1c2.99,0.07,3.9,1.01,3.97,1.88l0.03,0.37c0.03,0.5,0.1,0.67,0.37,0.67
				c0.2,0,0.27-0.2,0.3-0.54c0-0.87,0.1-3.2,0.1-3.9c0-0.5-0.03-0.71-0.27-0.71c-0.27,0-1.08,0.34-3.23,0.34H57.93
				c-1.11,0-2.39-0.07-3.36-0.17c-0.84-0.07-1.18-0.4-1.45-0.4c-0.2,0-0.3,0.2-0.4,0.64c-0.07,0.27-0.71,3.33-0.71,3.87
				c0,0.37,0.07,0.54,0.3,0.54c0.2,0,0.3-0.13,0.37-0.4c0.07-0.27,0.24-0.67,0.57-1.18c0.5-0.74,1.31-0.91,3.26-0.98l5.01-0.14
				V105.92z"/>
			<path fill="#5E81AA" d="M84.68,100.95c-0.1,0-0.2-0.07-0.2-0.24V100c0-5.11,0-6.06,0.07-7.13c0.07-1.18,0.34-1.75,1.25-1.92
				c0.4-0.07,0.71-0.1,0.98-0.1c0.4,0,0.61-0.07,0.61-0.3c0-0.24-0.24-0.3-0.71-0.3c-1.31,0-3.43,0.1-4.24,0.1
				c-0.91,0-3.03-0.1-4.84-0.1c-0.47,0-0.71,0.07-0.71,0.3c0,0.24,0.2,0.3,0.57,0.3c0.47,0,1.04,0.03,1.31,0.1
				c1.11,0.24,1.38,0.77,1.45,1.92c0.07,1.08,0.07,2.02,0.07,7.13v5.92c0,3.1,0,5.75-0.17,7.17c-0.14,0.98-0.3,1.72-0.98,1.85
				c-0.3,0.07-0.71,0.14-1.21,0.14c-0.4,0-0.54,0.1-0.54,0.27c0,0.24,0.24,0.34,0.67,0.34c1.34,0,3.46-0.1,4.24-0.1
				c0.94,0,3.06,0.1,5.25,0.1c0.4,0,0.67-0.1,0.67-0.34c0-0.17-0.17-0.27-0.54-0.27c-0.5,0-1.24-0.07-1.72-0.14
				c-1.01-0.13-1.21-0.87-1.31-1.82c-0.17-1.45-0.17-4.1-0.17-7.2v-2.96c0-0.17,0.1-0.2,0.2-0.2h12.85c0.1,0,0.2,0.07,0.2,0.2v2.96
				c0,3.1,0,5.75-0.17,7.17c-0.13,0.98-0.3,1.72-0.98,1.85c-0.3,0.07-0.71,0.14-1.21,0.14c-0.4,0-0.54,0.1-0.54,0.27
				c0,0.24,0.24,0.34,0.71,0.34c1.31,0,3.43-0.1,4.2-0.1c0.94,0,3.06,0.1,5.25,0.1c0.4,0,0.67-0.1,0.67-0.34
				c0-0.17-0.17-0.27-0.54-0.27c-0.5,0-1.25-0.07-1.72-0.14c-1.01-0.13-1.21-0.87-1.31-1.82c-0.17-1.45-0.17-4.1-0.17-7.2V100
				c0-5.11,0-6.06,0.07-7.13c0.07-1.18,0.34-1.75,1.25-1.92c0.4-0.07,0.71-0.1,0.98-0.1c0.4,0,0.61-0.07,0.61-0.3
				c0-0.24-0.24-0.3-0.71-0.3c-1.31,0-3.43,0.1-4.24,0.1c-0.91,0-3.03-0.1-4.84-0.1c-0.47,0-0.71,0.07-0.71,0.3
				c0,0.24,0.2,0.3,0.57,0.3c0.47,0,1.04,0.03,1.31,0.1c1.11,0.24,1.38,0.77,1.45,1.92c0.07,1.08,0.07,2.02,0.07,7.13v0.71
				c0,0.17-0.1,0.24-0.2,0.24H84.68z"/>
			<path fill="#5E81AA" d="M111.28,105.92c0,3.1,0,5.75-0.17,7.17c-0.14,0.98-0.3,1.72-0.98,1.85c-0.3,0.07-0.71,0.13-1.21,0.13
				c-0.4,0-0.54,0.1-0.54,0.27c0,0.23,0.24,0.34,0.67,0.34c1.35,0,3.47-0.1,4.24-0.1c1.98,0,4.24,0.2,9.32,0.2
				c1.28,0,1.58,0,1.82-0.87c0.17-0.67,0.44-2.96,0.44-3.73c0-0.34,0-0.61-0.27-0.61c-0.24,0-0.3,0.14-0.37,0.5
				c-0.23,1.38-0.64,2.09-1.51,2.49c-0.88,0.4-2.29,0.4-3.16,0.4c-3.43,0-3.97-0.5-4.04-2.83c-0.03-0.98,0-4.07,0-5.21v-2.66
				c0-0.2,0.03-0.34,0.2-0.34c0.81,0,4.14,0.03,4.78,0.1c1.25,0.13,1.72,0.64,1.88,1.31c0.1,0.44,0.1,0.87,0.13,1.21
				c0,0.17,0.07,0.3,0.3,0.3c0.3,0,0.3-0.37,0.3-0.64c0-0.24,0.07-1.58,0.13-2.25c0.1-1.72,0.27-2.25,0.27-2.46
				c0-0.2-0.1-0.27-0.24-0.27c-0.17,0-0.3,0.17-0.54,0.44c-0.3,0.34-0.81,0.44-1.62,0.5c-0.77,0.07-4.64,0.07-5.38,0.07
				c-0.2,0-0.24-0.13-0.24-0.37v-8.51c0-0.24,0.07-0.34,0.24-0.34c0.67,0,4.21,0.07,4.78,0.13c1.68,0.2,2.02,0.61,2.25,1.21
				c0.17,0.4,0.2,0.98,0.2,1.21c0,0.3,0.07,0.47,0.3,0.47s0.3-0.2,0.34-0.37c0.07-0.4,0.13-1.88,0.17-2.22
				c0.1-1.55,0.27-1.95,0.27-2.19c0-0.17-0.03-0.3-0.2-0.3c-0.17,0-0.37,0.1-0.54,0.14c-0.27,0.07-0.81,0.13-1.45,0.2
				c-0.64,0.03-7.33,0.03-8.41,0.03c-0.94,0-3.06-0.1-4.84-0.1c-0.5,0-0.74,0.07-0.74,0.3c0,0.24,0.2,0.3,0.57,0.3
				c0.47,0,1.04,0.03,1.31,0.1c1.11,0.24,1.38,0.77,1.45,1.92c0.07,1.08,0.07,2.02,0.07,7.13V105.92z"/>
		</g>
		<polygon fill="#5E81AA" points="154.16,127.35 155.75,8.32 262.98,0.39 170.48,12.74 169.69,130.3 		"/>
		<polygon fill="#A59885" points="167.08,12.18 262.37,0.12 266.42,0.25 178.19,15.69 177.74,135.28 169.09,130.11 		"/>
		<polygon fill="#54401F" points="256.53,0.86 167.08,12.18 169.09,130.11 169.28,130.22 169.69,130.3 170.48,12.74 262.98,0.39 		
			"/>
		<g>
			<path fill="#A59885" d="M262.76,29.07c-0.23,15.76-0.45,23.24-0.68,39.56l-17.23-0.45c0,0,2.1-47.16-2.4-47.17
				c1.01-5.75,5.21-13.88,14.3-10.99C262.52,11.86,262.92,18.05,262.76,29.07"/>
			<path fill="#A59885" d="M208.76,28.97c0-2.37-0.35-4.56-0.99-6.49c3.18-4.97,8.21-6.49,13.04-5.76
				c8.28,1.25,10.66,9.07,10.66,19.38l0.91,58.38l-25.85-8.16L208.76,28.97z"/>
			<path fill="#9DB286" d="M176.44,13.44l90.97-13.17l1.12,65.3l-10.03,5.78l1.97-47.55c0-8-3.91-13.64-9.13-12.51
				c-5.7,1.23-10.72,9.92-10.72,19.31l0.03,52.88l-13.89,11.9l3.2-61.14c0-10.14-6.35-16.99-14.99-15.13
				c-9.7,2.09-18.47,14.1-18.47,26.59l2.09,71.67l-23.75,15.19L176.44,13.44z"/>
		</g>
		<g>
			<defs>
				<path id="SVGID_1_" d="M176.45,13.44l-1.6,119.12l23.75-15.19l-2.09-71.67c0-12.49,8.77-24.5,18.47-26.59
					c8.64-1.86,14.99,4.99,14.99,15.13l-3.2,61.14l13.89-11.9l-0.03-52.88c0-9.39,5.02-18.08,10.72-19.31
					c5.22-1.12,9.13,4.52,9.13,12.51l-1.97,47.55l10.03-5.78l-1.12-65.3L176.45,13.44z"/>
			</defs>
			<clipPath id="SVGID_2_">
				<use xlink:href="#SVGID_1_"  overflow="visible"/>
			</clipPath>
			<polygon clip-path="url(#SVGID_2_)" fill="#54401F" points="167.08,12.18 262.37,0.12 266.42,0.25 178.19,15.69 177.74,135.28 
				169.09,130.11 			"/>
		</g>
		<g>
			<defs>
				<polygon id="SVGID_3_" points="176.45,13.44 174.85,132.56 177.75,130.7 178.19,15.69 261.18,1.17 				"/>
			</defs>
			<clipPath id="SVGID_4_">
				<use xlink:href="#SVGID_3_"  overflow="visible"/>
			</clipPath>
			<polygon clip-path="url(#SVGID_4_)" fill="#9DB286" points="154.16,127.35 155.75,8.32 262.98,0.39 170.48,12.74 169.69,130.3 
							"/>
		</g>
		<g>
			<defs>
				<path id="SVGID_5_" d="M176.45,13.44l-1.6,119.12l23.75-15.19l-2.09-71.67c0-12.49,8.77-24.5,18.47-26.59
					c8.64-1.86,14.99,4.99,14.99,15.13l-3.2,61.14l13.89-11.9l-0.03-52.88c0-9.39,5.02-18.08,10.72-19.31
					c5.22-1.12,9.13,4.52,9.13,12.51l-1.97,47.55l10.03-5.78l-1.12-65.3L176.45,13.44z"/>
			</defs>
			<clipPath id="SVGID_6_">
				<use xlink:href="#SVGID_5_"  overflow="visible"/>
			</clipPath>
			<path clip-path="url(#SVGID_6_)" fill="#54401F" d="M262.76,29.07c-0.23,15.76-0.45,23.24-0.68,39.56l-17.23-0.45
				c0,0,2.55-43.53-2.4-47.17c1.01-5.75,5.21-13.88,14.3-10.99C262.52,11.86,262.92,18.05,262.76,29.07"/>
			<path clip-path="url(#SVGID_6_)" fill="#54401F" d="M208.76,28.97c0-2.37-0.35-4.56-0.99-6.49c3.18-4.97,8.21-6.49,13.04-5.76
				c8.28,1.25,10.66,9.07,10.66,19.38l0.91,58.38l-25.85-8.16L208.76,28.97z"/>
		</g>
		<polygon fill="#A59885" points="149.62,10.82 250.74,1.07 157.43,12.04 157.43,125.64 148.72,122.13 		"/>
		<polygon fill="#54401F" points="240.66,2.04 155.72,10.23 154.2,124.34 157.43,125.64 157.43,12.04 245.56,1.67 		"/>
		<rect x="32.03" y="217.87" fill="#5E81AA" width="255.97" height="18.14"/>
		<g>
			<path fill="#FFFFFF" d="M49.03,231.62c-0.09,0.58-0.22,1.25-0.7,1.35c-0.26,0.05-0.38,0.05-0.51,0.05
				c-0.17,0-0.28,0.03-0.28,0.12c0,0.15,0.14,0.19,0.31,0.19c0.55,0,1.37-0.05,1.7-0.05c0.31,0,1.08,0.05,1.8,0.05
				c0.26,0,0.41-0.03,0.41-0.19c0-0.09-0.12-0.12-0.26-0.12c-0.17,0-0.41-0.02-0.72-0.09c-0.29-0.07-0.52-0.22-0.52-0.55
				c0-0.27,0.02-0.5,0.05-0.81l0.89-6.82h0.07c0.6,1.29,1.63,3.45,1.78,3.81c0.21,0.48,1.56,3.1,1.97,3.89
				c0.27,0.51,0.45,0.86,0.6,0.86s0.24-0.15,0.63-0.96l3.74-7.79h0.07l1.03,7.55c0.07,0.48,0.02,0.7-0.09,0.74
				c-0.12,0.05-0.19,0.1-0.19,0.19c0,0.1,0.1,0.15,0.5,0.19c0.69,0.05,3.05,0.1,3.48,0.1c0.24,0,0.45-0.05,0.45-0.19
				c0-0.1-0.12-0.12-0.28-0.12c-0.22,0-0.57-0.02-1.06-0.17c-0.51-0.15-0.69-0.65-0.84-1.73l-1.56-10.6
				c-0.05-0.36-0.15-0.53-0.31-0.53c-0.15,0-0.26,0.14-0.38,0.41l-4.66,9.79l-4.68-9.67c-0.22-0.45-0.33-0.53-0.46-0.53
				c-0.14,0-0.24,0.15-0.29,0.45L49.03,231.62z"/>
			<path fill="#FFFFFF" d="M95.39,227.85c0,2.49,0.65,3.75,1.53,4.54c1.25,1.13,2.9,1.18,3.81,1.18c1.11,0,2.35-0.19,3.57-1.23
				c1.44-1.24,1.63-3.26,1.63-5.16v-1.83c0-2.61,0-3.09,0.03-3.64c0.03-0.6,0.17-0.89,0.64-0.98c0.21-0.03,0.31-0.05,0.5-0.05
				c0.21,0,0.31-0.03,0.31-0.15c0-0.12-0.12-0.15-0.36-0.15c-0.67,0-1.75,0.05-1.95,0.05c-0.02,0-1.1-0.05-1.97-0.05
				c-0.24,0-0.36,0.03-0.36,0.15c0,0.12,0.1,0.15,0.29,0.15c0.19,0,0.48,0.02,0.62,0.05c0.57,0.12,0.7,0.39,0.74,0.98
				c0.03,0.55,0.03,1.03,0.03,3.64v2.14c0,1.77-0.05,3.31-0.99,4.25c-0.69,0.68-1.61,0.92-2.37,0.92c-0.58,0-1.37-0.07-2.14-0.7
				c-0.84-0.69-1.34-1.73-1.34-4.22v-2.4c0-2.61,0-3.09,0.03-3.64c0.03-0.6,0.17-0.89,0.63-0.98c0.21-0.03,0.31-0.05,0.5-0.05
				c0.17,0,0.27-0.03,0.27-0.15c0-0.12-0.12-0.15-0.38-0.15c-0.62,0-1.7,0.05-2.11,0.05c-0.51,0-1.59-0.05-2.5-0.05
				c-0.26,0-0.38,0.03-0.38,0.15c0,0.12,0.1,0.15,0.29,0.15c0.24,0,0.53,0.02,0.67,0.05c0.57,0.12,0.7,0.39,0.74,0.98
				c0.03,0.55,0.03,1.03,0.03,3.64V227.85z"/>
			<path fill="#FFFFFF" d="M140.66,233.58c0.91,0,1.87-0.15,2.73-0.7c1.23-0.81,1.61-1.99,1.61-2.98c0-1.63-0.76-2.78-2.81-4.37
				l-0.48-0.36c-1.42-1.08-1.82-1.68-1.82-2.47c0-1.03,0.77-1.77,2.04-1.77c1.11,0,1.61,0.51,1.87,0.84
				c0.36,0.45,0.45,0.98,0.45,1.13c0,0.21,0.05,0.31,0.17,0.31c0.14,0,0.19-0.14,0.19-0.51c0-1.34,0.07-1.84,0.07-2.06
				c0-0.12-0.09-0.17-0.24-0.21c-0.45-0.12-1.17-0.29-2.28-0.29c-2.38,0-3.96,1.35-3.96,3.24c0,1.39,0.65,2.59,2.54,4.06l0.79,0.62
				c1.42,1.1,1.68,1.9,1.68,2.74c0,0.91-0.75,1.95-2.3,1.95c-1.06,0-2.07-0.46-2.45-1.73c-0.09-0.29-0.15-0.65-0.15-0.87
				c0-0.14-0.02-0.29-0.17-0.29c-0.14,0-0.19,0.19-0.21,0.45c-0.02,0.27-0.09,1.3-0.09,2.25c0,0.38,0.05,0.46,0.33,0.58
				C138.89,233.46,139.67,233.58,140.66,233.58"/>
			<path fill="#FFFFFF" d="M177.44,228.36c0,1.58,0,2.93-0.08,3.65c-0.07,0.5-0.15,0.88-0.5,0.94c-0.15,0.03-0.36,0.07-0.62,0.07
				c-0.21,0-0.27,0.05-0.27,0.14c0,0.12,0.12,0.17,0.34,0.17c0.69,0,1.77-0.05,2.16-0.05c1.01,0,2.16,0.1,4.75,0.1
				c0.65,0,0.81,0,0.93-0.45c0.09-0.34,0.22-1.51,0.22-1.9c0-0.17,0-0.31-0.14-0.31c-0.12,0-0.15,0.07-0.19,0.26
				c-0.12,0.7-0.33,1.06-0.77,1.27c-0.45,0.21-1.17,0.21-1.61,0.21c-1.75,0-2.02-0.26-2.06-1.44c-0.02-0.5,0-2.07,0-2.66v-1.35
				c0-0.1,0.02-0.17,0.1-0.17c0.41,0,2.11,0.02,2.43,0.05c0.64,0.07,0.88,0.33,0.96,0.67c0.05,0.22,0.05,0.45,0.07,0.62
				c0,0.09,0.03,0.15,0.15,0.15c0.15,0,0.15-0.19,0.15-0.33c0-0.12,0.03-0.81,0.07-1.15c0.05-0.87,0.14-1.15,0.14-1.25
				c0-0.1-0.05-0.14-0.12-0.14c-0.09,0-0.15,0.09-0.27,0.22c-0.15,0.17-0.41,0.22-0.82,0.26c-0.39,0.03-2.37,0.03-2.74,0.03
				c-0.1,0-0.12-0.07-0.12-0.19v-4.34c0-0.12,0.03-0.17,0.12-0.17c0.34,0,2.14,0.03,2.44,0.07c0.86,0.1,1.03,0.31,1.15,0.62
				c0.09,0.21,0.1,0.5,0.1,0.62c0,0.15,0.03,0.24,0.15,0.24c0.12,0,0.15-0.1,0.17-0.19c0.03-0.21,0.07-0.96,0.09-1.13
				c0.05-0.79,0.14-1,0.14-1.12c0-0.09-0.02-0.15-0.1-0.15c-0.09,0-0.19,0.05-0.27,0.07c-0.14,0.03-0.41,0.07-0.74,0.1
				c-0.33,0.02-3.74,0.02-4.29,0.02c-0.48,0-1.56-0.05-2.47-0.05c-0.26,0-0.38,0.03-0.38,0.16c0,0.12,0.1,0.15,0.29,0.15
				c0.24,0,0.53,0.02,0.67,0.05c0.57,0.12,0.7,0.39,0.74,0.98c0.03,0.55,0.03,1.03,0.03,3.64V228.36z"/>
			<path fill="#FFFFFF" d="M215.9,227.85c0,2.49,0.65,3.75,1.53,4.54c1.25,1.13,2.9,1.18,3.81,1.18c1.11,0,2.35-0.19,3.57-1.23
				c1.44-1.24,1.63-3.26,1.63-5.16v-1.83c0-2.61,0-3.09,0.03-3.64c0.03-0.6,0.17-0.89,0.63-0.98c0.21-0.03,0.31-0.05,0.5-0.05
				c0.21,0,0.31-0.03,0.31-0.15c0-0.12-0.12-0.15-0.36-0.15c-0.67,0-1.75,0.05-1.95,0.05c-0.02,0-1.1-0.05-1.97-0.05
				c-0.24,0-0.36,0.03-0.36,0.15c0,0.12,0.1,0.15,0.29,0.15c0.19,0,0.48,0.02,0.62,0.05c0.56,0.12,0.7,0.39,0.74,0.98
				c0.03,0.55,0.03,1.03,0.03,3.64v2.14c0,1.77-0.05,3.31-1,4.25c-0.69,0.68-1.61,0.92-2.37,0.92c-0.58,0-1.37-0.07-2.14-0.7
				c-0.84-0.69-1.34-1.73-1.34-4.22v-2.4c0-2.61,0-3.09,0.03-3.64c0.03-0.6,0.17-0.89,0.63-0.98c0.21-0.03,0.31-0.05,0.5-0.05
				c0.17,0,0.27-0.03,0.27-0.15c0-0.12-0.12-0.15-0.38-0.15c-0.62,0-1.7,0.05-2.11,0.05c-0.51,0-1.6-0.05-2.5-0.05
				c-0.26,0-0.38,0.03-0.38,0.15c0,0.12,0.1,0.15,0.29,0.15c0.24,0,0.53,0.02,0.67,0.05c0.57,0.12,0.7,0.39,0.74,0.98
				c0.03,0.55,0.03,1.03,0.03,3.64V227.85z"/>
			<path fill="#FFFFFF" d="M258.28,231.62c-0.09,0.58-0.22,1.25-0.7,1.35c-0.26,0.05-0.38,0.05-0.52,0.05
				c-0.17,0-0.27,0.03-0.27,0.12c0,0.15,0.14,0.19,0.31,0.19c0.55,0,1.37-0.05,1.7-0.05c0.31,0,1.08,0.05,1.8,0.05
				c0.26,0,0.41-0.03,0.41-0.19c0-0.09-0.12-0.12-0.26-0.12c-0.17,0-0.41-0.02-0.72-0.09c-0.29-0.07-0.52-0.22-0.52-0.55
				c0-0.27,0.02-0.5,0.05-0.81l0.89-6.82h0.07c0.6,1.29,1.63,3.45,1.78,3.81c0.21,0.48,1.56,3.1,1.97,3.89
				c0.27,0.51,0.45,0.86,0.6,0.86c0.15,0,0.24-0.15,0.64-0.96l3.74-7.79h0.07l1.03,7.55c0.07,0.48,0.02,0.7-0.09,0.74
				c-0.12,0.05-0.19,0.1-0.19,0.19c0,0.1,0.1,0.15,0.5,0.19c0.69,0.05,3.05,0.1,3.48,0.1c0.24,0,0.45-0.05,0.45-0.19
				c0-0.1-0.12-0.12-0.27-0.12c-0.22,0-0.57-0.02-1.06-0.17c-0.51-0.15-0.69-0.65-0.84-1.73l-1.56-10.6
				c-0.05-0.36-0.15-0.53-0.31-0.53c-0.16,0-0.26,0.14-0.38,0.41l-4.66,9.79l-4.68-9.67c-0.22-0.45-0.32-0.53-0.46-0.53
				c-0.14,0-0.24,0.15-0.29,0.45L258.28,231.62z"/>
		</g>
	</g>
</g>
</svg>
